<svg xmlns="http://www.w3.org/2000/svg" width="231.088" height="87.803" viewBox="0 0 231.088 87.803">
    <g id="search_bar" transform="translate(0.003 -110.892)">
      <rect id="Прямоугольник_496" data-name="Прямоугольник 496" width="210.08" height="30.35" rx="15.17" transform="translate(20.55 167.89)" fill="#fff" stroke="#b000f2" stroke-miterlimit="10" stroke-width="0.91"/>
      <g id="cat">
        <path id="Контур_12570" data-name="Контур 12570" d="M17.07,159.54c2.67,2.27,2.11,16.16,10.61,15.64s15-2.09,18.53-2.09,20.26-.26,20.79,0,10,2.06,13.28,1.36,6.2-4.1,8.29-4.49,4.06-1.78,4.88-1.8.72-8.38,0-9.06-6.16-.9-11.51.87-31.27,4-35.87,4.08-18.55-3.74-21.2-2.26Z" fill="#efefef"/>
        <path id="Контур_12571" data-name="Контур 12571" d="M12.76,156.64A33.49,33.49,0,0,1,7.56,142C6.18,131,1,129.6.09,121.09s5.05-13.62,9.35-7.53.6,10,2,19c1.11,7,.08,15.3,5.07,16.7a9.86,9.86,0,0,0-3.75,7.38Z" fill="#efefef"/>
        <path id="Контур_12572" data-name="Контур 12572" d="M69.49,171.23c-.3-.12-.49-.22-.49-.22a2,2,0,0,0,.26-.58s.13-.65.31-.74S69.67,170.49,69.49,171.23Z" fill="#ffefe4"/>
        <path id="Контур_12573" data-name="Контур 12573" d="M73.26,170.6a2.91,2.91,0,0,1-.67.15A2.65,2.65,0,0,0,73,170a2.54,2.54,0,0,0,.23-.64C73.27,169.08,73.6,169.47,73.26,170.6Z" fill="#ffefe4"/>
        <path id="Контур_12574" data-name="Контур 12574" d="M75.21,168.21a2.49,2.49,0,0,1-1.95,2.39c.34-1.13,0-1.52,0-1.26A2.54,2.54,0,0,1,73,170a2.65,2.65,0,0,1-.41.77c-.87,1.12-2.34.77-3.1.48.18-.74.22-1.62.08-1.54s-.31.74-.31.74A2,2,0,0,1,69,171c-.85,1.35-3.21,1.43-5.22,0-2.27-1.63-4.15.44-10.38,0s-4.59-3.08-4.59-3.08a26.391,26.391,0,0,1,2.93-1.37,20.719,20.719,0,0,1,4.68-1.33c3.84-.57,4.53-2.77,4.53-2.77a38.1,38.1,0,0,1,7.27-.69c3.56.06,5.75,1.76,6.8,5.22A4,4,0,0,1,75.21,168.21Z" fill="#fff"/>
        <path id="Контур_12575" data-name="Контур 12575" d="M93.66,165.27A8.52,8.52,0,0,1,83.72,170c-1.51-.4-1.75,1.53-4.29,1.16a2.66,2.66,0,0,1-1.63-.78h0a2.54,2.54,0,0,1-.59-1.92s-.32-.28-.21,1a5.079,5.079,0,0,0,.1.64,2.59,2.59,0,0,1-1.14-2,6.72,6.72,0,0,1,0-1.7c.25-2.73,2.58-3.83,4.11-4.27h0c.44-.07.88-.15,1.34-.26a15.47,15.47,0,0,0,3.5-1.25h0a7.61,7.61,0,0,1,4.63,0,5,5,0,0,1,4.12,4.65Z" fill="#fff"/>
        <path id="Контур_12576" data-name="Контур 12576" d="M77.8,170.36a1.92,1.92,0,0,1-.7-.25,6.362,6.362,0,0,0-.1-.64c-.11-1.31.21-1,.21-1a2.52,2.52,0,0,0,.59,1.89Z" fill="#ffefe4"/>
        <path id="Контур_12577" data-name="Контур 12577" d="M93.77,165.05l-.11.22a5,5,0,0,0-4.09-4.63,7.61,7.61,0,0,0-4.63,0,11,11,0,0,0,4.9-4.82C91.11,156.5,96.17,159.74,93.77,165.05Z" fill="#efefef"/>
        <path id="Контур_12578" data-name="Контур 12578" d="M47.78,169.56a1.51,1.51,0,0,1-.2.26c-.3-1-1.79-1.56-1.79-1.56s.16-.58,1.13.25A4,4,0,0,1,47.78,169.56Z" fill="#ffefe4"/>
        <path id="Контур_12579" data-name="Контур 12579" d="M45.79,168.26s1.49.59,1.79,1.56a1.33,1.33,0,0,1-.42,1.36c-1.61,1.75-4.06.95-5.29,1.65s-20.8,1.94-17-4.29c0,0,5.92-5.13,12.73-4.95h0a12.622,12.622,0,0,1,1.83.19c5.1.89,7.79,2.75,8.43,4.31a1.55,1.55,0,0,1-.07,1.47,4,4,0,0,0-.86-1.05C46,167.68,45.79,168.26,45.79,168.26Z" fill="#fff"/>
        <path id="Контур_12580" data-name="Контур 12580" d="M51.74,166.54a26.391,26.391,0,0,0-2.93,1.37l-1,.18c-.64-1.56-3.33-3.42-8.43-4.31a12.618,12.618,0,0,0-1.83-.19,9.86,9.86,0,0,0,7.73-4.67c2.73-4.58,1-11.42-6.51-14.63,0,0-1.61-1.18,1.23,0s7.64,3.5,7.21,9.39-2.87,8.21-.52,10.52a7.94,7.94,0,0,0,5.05,2.34Z" fill="#efefef"/>
        <path id="Контур_12581" data-name="Контур 12581" d="M65.11,128.76c-.62,4.2-1,8.68-1,8.68s-6.07,3.44-4.74,13.53c0,2.75-.07,4-1.39,2.91s-2.77-1.63,0,1.91a13.15,13.15,0,0,1,3,6.65s-.69,2.2-4.53,2.77a20.72,20.72,0,0,0-4.68,1.33,7.94,7.94,0,0,1-5-2.34c-2.35-2.31.1-4.62.52-10.52s-4.38-8.21-7.21-9.39-1.23,0-1.23,0c7.5,3.21,9.25,10.05,6.51,14.63a9.86,9.86,0,0,1-7.73,4.67h0c-6.81-.18-12.74,4.95-12.74,4.95a10.19,10.19,0,0,1-3.82-.06,9.86,9.86,0,0,1-6.7-4.84,18.48,18.48,0,0,1-2.24-6.93C10.31,144.21,33.17,115.58,65.11,128.76Z" fill="#fff"/>
        <path id="Контур_12582" data-name="Контур 12582" d="M78.65,136.65c-1.36-.11-2.86-.23-3.87-.33-2.27-.24-12.87.83-12.87.83-.36-1,4.13-5.47,2.35-8.73a150.808,150.808,0,0,1,14.39,8.23Z" fill="#fff"/>
        <path id="Контур_12583" data-name="Контур 12583" d="M75.94,166.42a6.72,6.72,0,0,0,0,1.7,3.7,3.7,0,0,1-.75.09A4,4,0,0,0,75,167a6.554,6.554,0,0,0-6.8-5.22,39,39,0,0,0-7.27.69,13.15,13.15,0,0,0-3-6.65c-2.77-3.54-1.31-3,0-1.91s1.4-.16,1.39-2.91c1.34,10.09,14.33,11.3,14.33,11.3a22.71,22.71,0,0,0,6.34-.12C78.52,162.59,76.19,163.69,75.94,166.42Z" fill="#efefef"/>
        <path id="Контур_12584" data-name="Контур 12584" d="M65.11,136.13A18,18,0,0,1,60.36,139c-2.82,1.15-3.1,4.84-2.79,8s2.11,6.24,2.53,8,2,1,3.45-1.78,16-10.68,16.5-14.39S66.39,133.8,65.11,136.13Z" fill="#efefef"/>
        <path id="Контур_12585" data-name="Контур 12585" d="M91.55,156.48c-10.24,9.63-23.63,6.81-33-.69a10.63,10.63,0,0,1-1.42-2.1c-1-1.59-2.53-4.81-.69-8.23,2.11-3.94,8.1-7.76,8.1-7.76s.51.56,3,.65h.33a5,5,0,0,0,1.38-.14c.61-.15.94-.41,1.54-.56.25-.06-2.48-.14-2.09-.16,1.91-.06,1.58-1.24,1.58-1.24a15.21,15.21,0,0,1,6.61-.41,17.58,17.58,0,0,1,7.32,2.58s-2.86.22-1.17.69a3.34,3.34,0,0,1,1,.43,7,7,0,0,1,.86.86,3.9,3.9,0,0,0,1.18.84c1.66.82,1.56-1.05,2.14-.42,1.66,1.79,6.51,3.51,6.19,9.1C94.28,153.38,91.82,155.76,91.55,156.48Z" fill="#fff"/>
        <path id="Контур_12586" data-name="Контур 12586" d="M67.76,138.8h0a4,4,0,0,1-1.16.09,3.94,3.94,0,0,1-2.34-.61s.25-3.05.68-5.92v-.34c.1-.66.2-1.23.3-1.67v.13h0v.05a.22.22,0,0,1,.05.08l.08.12v.06a5.22,5.22,0,0,1,.29.63l.06.15h0l.12.34.06.17v.05l.12.34a.268.268,0,0,0,.07.22h0a1.8,1.8,0,0,1,.08.21h0a.825.825,0,0,0,.1.26.929.929,0,0,0,.05.1.3.3,0,0,0,0,.1l.09.19C67.41,134.94,67.75,138.71,67.76,138.8Z" fill="#ffcdcf"/>
        <path id="Контур_12587" data-name="Контур 12587" d="M68.82,138.42c-.42.1-.64.27-1.06.38,0-.09-.35-3.86-1-5.11l-.09-.19a1,1,0,0,1,0-.1l-.05-.1c0-.08-.07-.17-.1-.26h0a1.8,1.8,0,0,0-.08-.21h0a1.109,1.109,0,0,0-.07-.22l-.12-.34a2,2,0,0,0-.08-.22l-.12-.34a1.339,1.339,0,0,0-.07-.18,5.22,5.22,0,0,0-.29-.63v-.06l-.08-.12a.22.22,0,0,0-.05-.08.351.351,0,0,0,0-.08l-.07-.09v-.06a2.21,2.21,0,0,1,.5-1.16l.13.14.09.12a6.612,6.612,0,0,1,.44.6l.09.16a4.669,4.669,0,0,1,.27.49v.18a1.42,1.42,0,0,1,.08.18l.09.18v.08a2.291,2.291,0,0,0,.1.23h0s.08.19.11.29l.12.31.12.32.1.31c.18.55.33,1.1.46,1.63v.22a1.6,1.6,0,0,1,0,.21v.12a3.254,3.254,0,0,0,.13.62.653.653,0,0,1,0,.29,3.486,3.486,0,0,0,.07.38h0V137a1.123,1.123,0,0,0,.07.49.31.31,0,0,1,0,.1,1.219,1.219,0,0,0,.07.53h0a.17.17,0,0,1,0,.07.09.09,0,0,0,0,.05v.14Z" fill="#ffd4d5"/>
        <path id="Контур_12588" data-name="Контур 12588" d="M69.45,138.34a3.25,3.25,0,0,0-.63.08v-.14a.09.09,0,0,1,0-.05.17.17,0,0,0,0-.07h0a1.574,1.574,0,0,0-.07-.53.31.31,0,0,0,0-.1,1.263,1.263,0,0,0-.07-.49v-.69h0a.754.754,0,0,0-.07-.38c-.07-.13,0-.19,0-.29s-.09-.41-.13-.62v-.12a1.6,1.6,0,0,0,0-.21v-.22c-.05-.22-.11-.45-.17-.67s-.19-.64-.29-1l-.1-.31-.12-.32-.12-.31a.863.863,0,0,0-.11-.29h0a2.293,2.293,0,0,1-.1-.23v-.08l-.09-.18a1.422,1.422,0,0,0-.08-.18v-.18a4.671,4.671,0,0,0-.27-.49l-.09-.16a6.61,6.61,0,0,0-.44-.6l-.09-.12-.13-.14c.32-.24.76.09,1.45,1.13a37.15,37.15,0,0,1,2.35,4.36c.56,1.21,1,2.23,1.11,2.6C70.7,137.28,70.75,138.29,69.45,138.34Z" fill="#efefef"/>
        <path id="Контур_12589" data-name="Контур 12589" d="M89.85,132.05c-3.43,1.65-5.63,8.18-5.63,8.18a2.36,2.36,0,0,0-.67-.3,1.05,1.05,0,0,1-.77-1.41s3.36-4.4,5.69-6a4.709,4.709,0,0,1,.7-.4,1,1,0,0,1,.68-.07Z" fill="#efefef"/>
        <path id="Контур_12590" data-name="Контур 12590" d="M90.38,133.07c-.81.55-1,1.73-2.39,2.57-1.87,1.12-3.18,5.18-3.18,5.18a3.661,3.661,0,0,0-.59-.59s2.2-6.53,5.63-8.18C90.18,132.14,90.35,132.5,90.38,133.07Z" fill="#ffd4d5"/>
        <path id="Контур_12591" data-name="Контур 12591" d="M88,141.34a2.3,2.3,0,0,1-2.38,0,3,3,0,0,1-.8-.57s1.31-4.06,3.18-5.18c1.41-.84,1.58-2,2.39-2.57C90.49,134.72,89.46,138.07,88,141.34Z" fill="#ffcdcf"/>
        <line id="Линия_10" data-name="Линия 10" x1="0.44" y2="2.54" transform="translate(74.79 153.78)" fill="#1f2123" stroke="#000" stroke-linecap="round" stroke-miterlimit="10" stroke-width="0.5"/>
        <path id="Контур_12592" data-name="Контур 12592" d="M74.67,154l-.53-.93a.64.64,0,0,1,.66-.95l1.31.2a.64.64,0,0,1,.33,1.1l-.78.73a.64.64,0,0,1-.99-.15Z" fill="#1f2123"/>
        <path id="Контур_12593" data-name="Контур 12593" d="M71.7,148.48s-.71.77-3.23.24-1.91-3.27-1.91-3.27S67.09,148.35,71.7,148.48Z" fill="#191818"/>
        <path id="Контур_12594" data-name="Контур 12594" d="M84.94,147.93s-.07,2.8-2.64,2.71-3.07-1-3.07-1C83.73,150.61,84.94,147.93,84.94,147.93Z" fill="#191818"/>
        <path id="Контур_12595" data-name="Контур 12595" d="M77.28,152.46a2.21,2.21,0,0,1-.33.69,4,4,0,0,1-2,1.43,4.08,4.08,0,0,1-1.57-1.85,2.7,2.7,0,0,1-.15-.76c0-.22-.11-1.1.35-.86a2.51,2.51,0,0,1,.41.32,2.8,2.8,0,0,0,1.27.62,2.74,2.74,0,0,0,1.37-.3,3.329,3.329,0,0,1,.48-.21C77.65,151.42,77.35,152.25,77.28,152.46Z" fill="#191818"/>
      </g>
      <text id="dots" transform="translate(35.997 184)" fill="#2f2e6b" font-size="23" font-family="PlayfairDisplay-Bold, Playfair Display" font-weight="700" opacity="0.17"><tspan x="0" y="0">...</tspan></text>
    </g>
  </svg>
  